<?xml version="1.0" encoding="UTF-8"?>
<!DOCTYPE svg PUBLIC "-//W3C//DTD SVG 1.1//EN" "http://www.w3.org/Graphics/SVG/1.1/DTD/svg11.dtd">
<!-- Creator: CorelDRAW 2021 (64-Bit) -->
<svg xmlns="http://www.w3.org/2000/svg" xml:space="preserve" width="100.821mm" height="100.821mm" version="1.1" style="shape-rendering:geometricPrecision; text-rendering:geometricPrecision; image-rendering:optimizeQuality; fill-rule:evenodd; clip-rule:evenodd"
viewBox="0 0 10082.12 10082.12"
 xmlns:xlink="http://www.w3.org/1999/xlink"
 xmlns:xodm="http://www.corel.com/coreldraw/odm/2003">
 <defs>
  <style type="text/css">
   <![CDATA[
    .fil3 {fill:#FEFEFE}
    .fil0 {fill:#4A81CA}
    .fil1 {fill:#72ABE6}
    .fil2 {fill:#99C1EA}
   ]]>
  </style>
 </defs>
 <g id="Capa_x0020_1">
  <metadata id="CorelCorpID_0Corel-Layer"/>
  <circle class="fil0" cx="5035.99" cy="5046.13" r="5041.06"/>
  <circle class="fil1" cx="5035.99" cy="5046.13" r="4149.28"/>
  <circle class="fil2" cx="5035.99" cy="5046.13" r="2926.91"/>
  <polygon class="fil3" points="2886.15,8100.07 2885.07,1898.39 4202.43,1472.19 4202.43,6896.59 7185.83,6896.59 7186.91,8094.39 "/>
  <g id="_2214634810144">
   <polygon class="fil3" points="5322.7,3490.47 5553.96,3490.47 5553.96,3742.22 6031.12,3742.22 6031.12,3952.99 5780.83,4203.28 6268.23,4690.68 6268.23,6157.29 6525.84,6414.9 6815.65,6414.9 6558.04,6157.29 6805.4,5909.93 6805.4,5680.13 7529.19,4956.34 7529.19,4711.18 7795.95,4444.42 7276.71,3925.18 7043.98,3925.18 6545.6,3426.8 6296.05,3676.35 6072.1,3452.41 5832.06,3452.41 5586.16,3206.51 5349.04,3206.51 5349.04,2723.5 4546.95,2723.5 "/>
   <polygon class="fil3" points="5795.98,3244.17 6060.5,2979.65 6305.1,3224.24 6559.66,3224.24 6287.39,3496.51 6045.01,3254.13 "/>
  </g>
 </g>
</svg>
