<?xml version="1.0" encoding="UTF-8"?>
<!DOCTYPE svg PUBLIC "-//W3C//DTD SVG 1.1//EN" "http://www.w3.org/Graphics/SVG/1.1/DTD/svg11.dtd">
<!-- Creator: CorelDRAW 2021 (64-Bit) -->
<svg xmlns="http://www.w3.org/2000/svg" xml:space="preserve" width="159mm" height="16.6122mm" version="1.1" style="shape-rendering:geometricPrecision; text-rendering:geometricPrecision; image-rendering:optimizeQuality; fill-rule:evenodd; clip-rule:evenodd"
viewBox="0 0 15900 1661.22"
 xmlns:xlink="http://www.w3.org/1999/xlink"
 xmlns:xodm="http://www.corel.com/coreldraw/odm/2003">
 <defs>
  <style type="text/css">
   <![CDATA[
    .fil0 {fill:#4A81CA}
   ]]>
  </style>
 </defs>
 <g id="Capa_x0020_1">
  <metadata id="CorelCorpID_0Corel-Layer"/>
  <polygon class="fil0" points="0.07,1664.54 -0.2,114.12 329.14,7.57 329.14,1363.67 1074.99,1363.67 1075.26,1663.12 "/>
  <path class="fil0" d="M1739.9 24.85l260.99 0 651.86 1638.41 -349.58 0 -151.43 -352.62 -545.93 0 -141.27 351.98 -337.61 0 612.97 -1637.77zm127.57 531.33l168.46 416.62 -324.96 0 156.5 -416.62z"/>
  <path class="fil0" d="M4260.49 24.85l260.99 0 654.95 1638.16 -349.58 0 -154.52 -352.37 -545.93 0 -141.27 351.98 -337.61 0 612.97 -1637.77zm127.57 531.33l168.46 416.62 -324.96 0 156.5 -416.62z"/>
  <polygon class="fil0" points="2980.48,1665.16 2981.24,303.17 2543.88,303.17 2542.6,20.17 3756.43,20.17 3756.43,303.43 3300.05,303.43 3300.57,1665.16 "/>
  <polygon class="fil0" points="5312.78,1661.94 5314.34,19.76 5606.1,19.76 6117.02,914.93 6628.57,18.66 6919.02,18.66 6919.02,1661.43 6598.09,1661.43 6598.09,739.15 6248.72,1351.26 6043.74,1351.26 5649.07,705.11 5647.41,1661.78 "/>
  <polygon class="fil0" points="7101.11,26.68 7449.29,26.68 7843.61,1096.39 8244.52,24.93 8609.48,24.93 7990.43,1662.71 7700.98,1662.71 "/>
  <path class="fil0" d="M9427.69 23.47c451.77,0 818.01,366.24 818.01,818.01 0,451.77 -366.24,818.01 -818.01,818.01 -451.77,0 -818.01,-366.24 -818.01,-818.01 0,-451.77 366.24,-818.01 818.01,-818.01zm0 329.79c269.64,0 488.22,218.58 488.22,488.22 0,269.64 -218.58,488.22 -488.22,488.22 -269.64,0 -488.22,-218.58 -488.22,-488.22 0,-269.64 218.58,-488.22 488.22,-488.22z"/>
  <path class="fil0" d="M10847.2 1664.97l-360 0 -0.01 -1638.29 647.01 0c767.17,0 593.96,981.59 212.19,1031.96l423.69 604.07 -377.55 0 -415.3 -562.12 0 -339.79 146.54 0c259.94,0 299.24,-419.5 -8.35,-419.5l-276.62 0 8.4 1323.67z"/>
  <polygon class="fil0" points="12224.37,1664.2 12225.65,305.97 11788.29,305.97 11787.01,25.05 13000.84,25.05 13000.84,306.22 12544.46,306.22 12544.46,1664.2 "/>
  <polygon class="fil0" points="13210.4,18.28 14259.55,18.28 14259.55,304.84 13537.91,304.84 13537.91,690.61 14254,690.61 14254,982.69 13537.91,982.69 13537.91,1335.4 14248.45,1335.4 14248.45,1666.05 13204.85,1666.05 "/>
  <polygon class="fil0" points="15120.76,553.26 15502.97,15.61 15899.8,15.61 15321.92,845.86 15897.98,1668.8 15471.88,1668.8 15128.07,1122 14751.35,1668.8 14345.37,1668.8 14901.31,860.49 14354.51,21.09 14740.38,21.09 "/>
 </g>
</svg>
